<?xml version="1.0" encoding="iso-8859-1"?>
<!-- Generator: Adobe Illustrator 18.0.0, SVG Export Plug-In . SVG Version: 6.00 Build 0)  -->
<!DOCTYPE svg PUBLIC "-//W3C//DTD SVG 1.1//EN" "http://www.w3.org/Graphics/SVG/1.1/DTD/svg11.dtd">
<svg version="1.1" id="Capa_1" xmlns="http://www.w3.org/2000/svg" xmlns:xlink="http://www.w3.org/1999/xlink" x="0px" y="0px" width="28" height="28"
	 viewBox="0 0 452.203 452.203" style="enable-background:new 0 0 452.203 452.203;" xml:space="preserve">
<path d="M445.203,184.46v32.269c-5.349-6.253-13.289-10.227-22.143-10.227H137.81c12.273-4.9,23.54-12.286,33.166-21.912
	l2.475-2.475l-2.475-2.475c-18.645-18.644-43.434-28.912-69.801-28.912s-51.157,10.268-69.801,28.912l-2.475,2.475l2.475,2.475
	c9.626,9.626,20.893,17.012,33.166,21.912H29.143c-8.854,0-16.794,3.975-22.143,10.227v-99.842H0v185.109h21.254v33.317h24.832
	v-33.317h360.032v33.317h24.832v-33.317h21.254V184.46H445.203z M39.085,328.314H28.254v-26.316h10.832V328.314z M423.949,328.314
	h-10.832v-26.316h10.832V328.314z M38.895,182.115c16.998-15.753,38.976-24.387,62.281-24.387s45.283,8.634,62.281,24.387
	c-16.998,15.753-38.976,24.387-62.281,24.387S55.893,197.869,38.895,182.115z M408.19,213.502v42.746H60.028v-42.746H408.19z
	 M7,235.646c0-12.209,9.933-22.143,22.143-22.143h23.885v27.907H7V235.646z M445.203,294.998H7v-28.981V248.41h46.028v14.838H415.19
	V248.41h30.012V294.998z M415.19,241.41v-27.907h7.869c12.21,0,22.143,9.934,22.143,22.143v5.764H415.19z"/>
<g>
</g>
<g>
</g>
<g>
</g>
<g>
</g>
<g>
</g>
<g>
</g>
<g>
</g>
<g>
</g>
<g>
</g>
<g>
</g>
<g>
</g>
<g>
</g>
<g>
</g>
<g>
</g>
<g>
</g>
</svg>
